<?xml version="1.0" encoding="UTF-8" standalone="no"?>
<!DOCTYPE svg PUBLIC "-//W3C//DTD SVG 1.0//EN" "http://www.w3.org/TR/2001/REC-SVG-20010904/DTD/svg10.dtd">
<!-- Generated by Microsoft Visio 11.0, SVG Export, v1.0 bibliographic_coupling with numbers instead of characters for the documents.svg Page-1 -->
<svg xmlns="http://www.w3.org/2000/svg" xmlns:xlink="http://www.w3.org/1999/xlink" xmlns:ev="http://www.w3.org/2001/xml-events"
		xmlns:v="http://schemas.microsoft.com/visio/2003/SVGExtensions/" width="1.61988in" height="1.70051in"
		viewBox="0 0 116.631 122.437" xml:space="preserve" color-interpolation-filters="sRGB" class="st7">
	<v:documentProperties v:langID="1033" v:metric="true" v:viewMarkup="false"/>

	<style type="text/css">
	<![CDATA[
		.st1 {fill:#ffffff;stroke:#000000;stroke-linecap:round;stroke-linejoin:round;stroke-width:0.24}
		.st2 {fill:#000000;font-family:Calibri;font-size:0.666664em}
		.st3 {font-size:1em}
		.st4 {marker-end:url(#mrkr4-23);stroke:#000000;stroke-linecap:round;stroke-linejoin:round;stroke-width:0.239976}
		.st5 {fill:#000000;fill-opacity:1;stroke:#000000;stroke-opacity:1;stroke-width:0.086948582161584}
		.st6 {fill:#ffffff;stroke:none;stroke-linecap:butt;stroke-width:7.2}
		.st7 {fill:none;fill-rule:evenodd;font-size:12px;overflow:visible;stroke-linecap:square;stroke-miterlimit:3}
	]]>
	</style>

	<defs id="Markers">
		<g id="lend4">
			<path d="M 2 1 L 0 0 L 2 -1 L 2 1 " style="stroke:none"/>
		</g>
		<marker id="mrkr4-23" class="st5" v:arrowType="4" v:arrowSize="2" v:setback="21.502" refX="-21.50195019502" orient="auto"
				markerUnits="strokeWidth" overflow="visible">
			<use xlink:href="#lend4" transform="scale(-11.501050105011,-11.501050105011) "/>
		</marker>
	</defs>
	<g v:mID="0" v:index="1" v:groupContext="foregroundPage">
		<title>Page-1</title>
		<v:pageProperties v:drawingScale="0.0393701" v:pageScale="0.0393701" v:drawingUnits="24" v:shadowOffsetX="4.25197"
				v:shadowOffsetY="-4.25197"/>
		<v:layer v:name="Connector" v:index="0"/>
		<g id="shape1-1" v:mID="1" v:groupContext="shape" transform="translate(10.4376,-86.8983)">
			<title>Document.30</title>
			<desc>Doc A citing</desc>
			<v:userDefs>
				<v:ud v:nameU="visDescription" v:val="VT4(Use to add a document or file to your system diagram.)"/>
				<v:ud v:nameU="visVersion" v:val="VT0(12):26"/>
			</v:userDefs>
			<v:textBlock v:margins="rect(2,2,2,2)" v:tabSpace="42.5197"/>
			<v:textRect cx="13.237" cy="109.2" width="26.48" height="26.474"/>
			<path d="M17.65 87.14 L26.47 95.96 L17.65 95.96 L17.65 87.14 ZM0 87.14 L0 122.44 L26.47 122.44 L26.47 95.96 L17.65 95.96
						 L17.65 87.14 L0 87.14 Z" class="st1"/>
			<text x="3.76" y="106.8" class="st2" v:langID="1031"><v:paragraph v:horizAlign="1"/><v:tabList/>Doc A<v:lf/><tspan
						x="4.39" dy="1.2em" class="st3">citing</tspan></text>		</g>
		<g id="shape2-5" v:mID="2" v:groupContext="shape" transform="translate(80.8227,-86.8983)">
			<title>Document.35</title>
			<desc>Doc B citing</desc>
			<v:userDefs>
				<v:ud v:nameU="visDescription" v:val="VT4(Use to add a document or file to your system diagram.)"/>
				<v:ud v:nameU="visVersion" v:val="VT0(12):26"/>
			</v:userDefs>
			<v:textBlock v:margins="rect(2,2,2,2)" v:tabSpace="42.5197"/>
			<v:textRect cx="13.237" cy="109.2" width="26.48" height="26.474"/>
			<path d="M17.65 87.14 L26.47 95.96 L17.65 95.96 L17.65 87.14 ZM0 87.14 L0 122.44 L26.47 122.44 L26.47 95.96 L17.65 95.96
						 L17.65 87.14 L0 87.14 Z" class="st1"/>
			<text x="3.9" y="106.8" class="st2" v:langID="1031"><v:paragraph v:horizAlign="1"/><v:tabList/>Doc B<v:lf/><tspan
						x="4.39" dy="1.2em" class="st3">citing</tspan></text>		</g>
		<g id="shape3-9" v:mID="3" v:groupContext="shape" transform="translate(50.0811,-63.0586)">
			<title>Document.36</title>
			<desc>[1]</desc>
			<v:userDefs>
				<v:ud v:nameU="visDescription" v:val="VT4(Use to add a document or file to your system diagram.)"/>
				<v:ud v:nameU="visVersion" v:val="VT0(12):26"/>
			</v:userDefs>
			<v:textBlock v:margins="rect(2,2,2,2)" v:tabSpace="42.5197"/>
			<v:textRect cx="9.33503" cy="113.102" width="18.68" height="18.6701"/>
			<path d="M12.45 97.54 L18.67 103.77 L12.45 103.77 L12.45 97.54 ZM0 97.54 L0 122.44 L18.67 122.44 L18.67 103.77 L12.45
						 103.77 L12.45 97.54 L0 97.54 Z" class="st1"/>
			<text x="4.85" y="115.5" class="st2" v:langID="1031"><v:paragraph v:horizAlign="1"/><v:tabList/>[1]</text>		</g>
		<g id="shape4-12" v:mID="4" v:groupContext="shape" transform="translate(50.0811,-31.6555)">
			<title>Document.42</title>
			<desc>[2]</desc>
			<v:userDefs>
				<v:ud v:nameU="visDescription" v:val="VT4(Use to add a document or file to your system diagram.)"/>
				<v:ud v:nameU="visVersion" v:val="VT0(12):26"/>
			</v:userDefs>
			<v:textBlock v:margins="rect(2,2,2,2)" v:tabSpace="42.5197"/>
			<v:textRect cx="9.33503" cy="113.102" width="18.68" height="18.6701"/>
			<path d="M12.45 97.54 L18.67 103.77 L12.45 103.77 L12.45 97.54 ZM0 97.54 L0 122.44 L18.67 122.44 L18.67 103.77 L12.45
						 103.77 L12.45 97.54 L0 97.54 Z" class="st1"/>
			<text x="4.85" y="115.5" class="st2" v:langID="1031"><v:paragraph v:horizAlign="1"/><v:tabList/>[2]</text>		</g>
		<g id="shape5-15" v:mID="5" v:groupContext="shape" transform="translate(50.0811,-0.24)">
			<title>Document.43</title>
			<desc>[3]</desc>
			<v:userDefs>
				<v:ud v:nameU="visDescription" v:val="VT4(Use to add a document or file to your system diagram.)"/>
				<v:ud v:nameU="visVersion" v:val="VT0(12):26"/>
			</v:userDefs>
			<v:textBlock v:margins="rect(2,2,2,2)" v:tabSpace="42.5197"/>
			<v:textRect cx="9.33503" cy="113.102" width="18.68" height="18.6701"/>
			<path d="M12.45 97.54 L18.67 103.77 L12.45 103.77 L12.45 97.54 ZM0 97.54 L0 122.44 L18.67 122.44 L18.67 103.77 L12.45
						 103.77 L12.45 97.54 L0 97.54 Z" class="st1"/>
			<text x="4.85" y="115.5" class="st2" v:langID="1031"><v:paragraph v:horizAlign="1"/><v:tabList/>[3]</text>		</g>
		<g id="shape6-18" v:mID="6" v:groupContext="shape" v:layerMember="0" transform="translate(17.5256,-86.8983)">
			<title>Dynamic connector</title>
			<desc>cites</desc>
			<v:textBlock v:margins="rect(4,4,4,4)" v:tabSpace="42.5197"/>
			<v:textRect cx="2.47438" cy="168.891" width="40" height="17.6036"/>
			<path d="M0 122.44 C0 140.99 0 171.48 7.33 185.27 C12.09 194.22 19.94 196.13 27.04 196.54 L27.4 196.55" class="st4"/>
			<rect v:rectContext="textBkgnd" x="-5.02922" y="164.091" width="15.0073" height="9.59985" class="st6"/>
			<text x="-5.03" y="171.29" class="st2" v:langID="1031"><v:paragraph v:horizAlign="1"/><v:tabList/>cites</text>		</g>
		<g id="shape7-26" v:mID="7" v:groupContext="shape" v:layerMember="0" transform="translate(98.7848,-86.8983)">
			<title>Dynamic connector.45</title>
			<path d="M0 122.44 C0 140.99 -0 171.65 -6.83 185.42 C-11.12 194.06 -18.1 196.05 -24.52 196.51 L-24.88 196.52"
					class="st4"/>
		</g>
		<g id="shape8-31" v:mID="8" v:groupContext="shape" v:layerMember="0" transform="translate(94.0597,-86.8983)">
			<title>Dynamic connector.46</title>
			<path d="M0 122.44 C0 133.14 -0 150.27 -5.41 158.26 C-8.86 163.36 -14.52 164.73 -19.79 165.1 L-20.15 165.11"
					class="st4"/>
		</g>
		<g id="shape9-36" v:mID="9" v:groupContext="shape" v:layerMember="0" transform="translate(89.7139,-88.2884)">
			<title>Dynamic connector.47</title>
			<path d="M0 123.83 C0 126.68 -0 130.62 -3.35 132.74 C-6.06 134.46 -10.95 134.99 -15.44 135.15 L-15.8 135.15"
					class="st4"/>
		</g>
		<g id="shape10-41" v:mID="10" v:groupContext="shape" v:layerMember="0" transform="translate(23.6746,-86.8983)">
			<title>Dynamic connector.48</title>
			<path d="M0 122.44 C0 133.14 -0 150.2 5.6 158.19 C9.26 163.42 15.31 164.76 20.89 165.11 L21.25 165.12" class="st4"/>
		</g>
		<g id="shape11-46" v:mID="11" v:groupContext="shape" v:layerMember="0" transform="translate(28.8642,-88.2884)">
			<title>Dynamic connector.49</title>
			<path d="M0 123.83 C0 126.68 -0 130.62 3.38 132.74 C6.14 134.47 11.13 134.99 15.7 135.15 L16.06 135.15" class="st4"/>
		</g>
	</g>
</svg>
